# xmcd
#
# Track frame offsets:
# 150
# 16319
# 34147
# 46680
# 61755
# 70168
# 92969
# 106326
#
# Disc length: 1676 seconds
#
#
# Revision: 0
# Processed by: cddbd v1.5.1PL0 Copyright (c) Steve Scherf et al.
# Submitted via: FreeRIP 2.91 
#
DISCID=5e068a08
DTITLE=Harold K - Mengsmering
DYEAR=2004
DGENRE=Folk
TTITLE0=Witte Vrouwen
TTITLE1=Koper
TTITLE2=Nieuw Zeeland
TTITLE3=Feest
TTITLE4=Blief Hie
TTITLE5=Mengsmering
TTITLE6=Marmer
TTITLE7=Zjwieg
EXTD=
EXTT0=
EXTT1=
EXTT2=
EXTT3=
EXTT4=
EXTT5=
EXTT6=
EXTT7=
PLAYORDER=
